<svg preserveAspectRatio="none" width="100%" height="100%" overflow="visible" style="display: block;" viewBox="0 0 17.5008 21.5003" fill="none" xmlns="http://www.w3.org/2000/svg">
<g id="Group">
<path id="Vector" d="M0.75 20.7503H16.75" stroke="var(--stroke-0, #1A1A1A)" stroke-width="1.5" stroke-linecap="round"/>
<path id="Vector_2" d="M10.638 2.41227L3.821 9.23027C3.359 9.69227 3.128 9.92227 2.93 10.1773C2.69545 10.4774 2.49458 10.8023 2.331 11.1463C2.192 11.4373 2.089 11.7473 1.882 12.3663L1.007 14.9923L0.794 15.6333C0.74407 15.7827 0.736773 15.9431 0.772926 16.0965C0.809079 16.2499 0.887253 16.3902 0.998679 16.5016C1.1101 16.613 1.25037 16.6912 1.40375 16.7273C1.55712 16.7635 1.71754 16.7562 1.867 16.7063L2.508 16.4933L5.134 15.6173C5.753 15.4113 6.063 15.3083 6.354 15.1693C6.69933 15.0046 7.02233 14.8049 7.323 14.5703C7.578 14.3713 7.808 14.1413 8.27 13.6793L15.087 6.86227C15.087 6.86227 13.511 6.76927 12.121 5.37927C10.731 3.98927 10.638 2.41327 10.638 2.41327L11.38 1.67127C11.6722 1.37915 12.0191 1.14743 12.4008 0.98936C12.7825 0.831288 13.1917 0.749954 13.6049 0.75C14.018 0.750046 14.4271 0.831473 14.8089 0.989631C15.1906 1.14779 15.5374 1.37958 15.8295 1.67177C16.1216 1.96396 16.3533 2.31083 16.5114 2.69257C16.6695 3.07431 16.7508 3.48345 16.7508 3.89663C16.7507 4.3098 16.6693 4.71892 16.5111 5.10062C16.353 5.48233 16.1212 5.82915 15.829 6.12127L15.087 6.86127M1.007 14.9923L2.508 16.4933" stroke="var(--stroke-0, #1A1A1A)" stroke-width="1.5"/>
</g>
</svg>
