<svg preserveAspectRatio="none" width="100%" height="100%" overflow="visible" style="display: block;" viewBox="0 0 12 18" fill="none" xmlns="http://www.w3.org/2000/svg">
<path id="Vector" d="M2.25 4.5C2.54547 4.5 2.83806 4.4418 3.11104 4.32873C3.38402 4.21566 3.63206 4.04992 3.84099 3.84099C4.04992 3.63206 4.21566 3.38402 4.32873 3.11104C4.4418 2.83806 4.5 2.54547 4.5 2.25C4.5 1.95453 4.4418 1.66194 4.32873 1.38896C4.21566 1.11598 4.04992 0.867942 3.84099 0.65901C3.63206 0.450078 3.38402 0.284344 3.11104 0.171271C2.83806 0.0581981 2.54547 -4.40291e-09 2.25 0C1.65326 8.89208e-09 1.08097 0.237053 0.659009 0.65901C0.237053 1.08097 0 1.65326 0 2.25C0 2.84674 0.237053 3.41903 0.659009 3.84099C1.08097 4.26295 1.65326 4.5 2.25 4.5ZM2.25 11.25C2.84674 11.25 3.41903 11.0129 3.84099 10.591C4.26295 10.169 4.5 9.59674 4.5 9C4.5 8.40326 4.26295 7.83097 3.84099 7.40901C3.41903 6.98705 2.84674 6.75 2.25 6.75C1.65326 6.75 1.08097 6.98705 0.659009 7.40901C0.237053 7.83097 0 8.40326 0 9C0 9.59674 0.237053 10.169 0.659009 10.591C1.08097 11.0129 1.65326 11.25 2.25 11.25ZM4.5 15.75C4.5 16.0455 4.4418 16.3381 4.32873 16.611C4.21566 16.884 4.04992 17.1321 3.84099 17.341C3.63206 17.5499 3.38402 17.7157 3.11104 17.8287C2.83806 17.9418 2.54547 18 2.25 18C1.95453 18 1.66194 17.9418 1.38896 17.8287C1.11598 17.7157 0.867941 17.5499 0.659009 17.341C0.450078 17.1321 0.284344 16.884 0.171271 16.611C0.0581978 16.3381 -6.22665e-09 16.0455 0 15.75C1.25753e-08 15.1533 0.237053 14.581 0.659009 14.159C1.08097 13.7371 1.65326 13.5 2.25 13.5C2.84674 13.5 3.41903 13.7371 3.84099 14.159C4.26295 14.581 4.5 15.1533 4.5 15.75ZM9.75 4.5C10.0455 4.5 10.3381 4.4418 10.611 4.32873C10.884 4.21566 11.1321 4.04992 11.341 3.84099C11.5499 3.63206 11.7157 3.38402 11.8287 3.11104C11.9418 2.83806 12 2.54547 12 2.25C12 1.95453 11.9418 1.66194 11.8287 1.38896C11.7157 1.11598 11.5499 0.867942 11.341 0.65901C11.1321 0.450078 10.884 0.284344 10.611 0.171271C10.3381 0.0581981 10.0455 -4.40291e-09 9.75 0C9.15326 8.89208e-09 8.58097 0.237053 8.15901 0.65901C7.73705 1.08097 7.5 1.65326 7.5 2.25C7.5 2.84674 7.73705 3.41903 8.15901 3.84099C8.58097 4.26295 9.15326 4.5 9.75 4.5ZM12 9C12 9.59674 11.7629 10.169 11.341 10.591C10.919 11.0129 10.3467 11.25 9.75 11.25C9.15326 11.25 8.58097 11.0129 8.15901 10.591C7.73705 10.169 7.5 9.59674 7.5 9C7.5 8.40326 7.73705 7.83097 8.15901 7.40901C8.58097 6.98705 9.15326 6.75 9.75 6.75C10.3467 6.75 10.919 6.98705 11.341 7.40901C11.7629 7.83097 12 8.40326 12 9ZM9.75 18C10.0455 18 10.3381 17.9418 10.611 17.8287C10.884 17.7157 11.1321 17.5499 11.341 17.341C11.5499 17.1321 11.7157 16.884 11.8287 16.611C11.9418 16.3381 12 16.0455 12 15.75C12 15.4545 11.9418 15.1619 11.8287 14.889C11.7157 14.616 11.5499 14.3679 11.341 14.159C11.1321 13.9501 10.884 13.7843 10.611 13.6713C10.3381 13.5582 10.0455 13.5 9.75 13.5C9.15326 13.5 8.58097 13.7371 8.15901 14.159C7.73705 14.581 7.5 15.1533 7.5 15.75C7.5 16.3467 7.73705 16.919 8.15901 17.341C8.58097 17.7629 9.15326 18 9.75 18Z" fill="var(--fill-0, #1A1A1A)"/>
</svg>
