<svg aria-hidden="true" width="24" height="24" viewBox="0 0 24 24" fill="none" xmlns="http://www.w3.org/2000/svg">




<g id="Group">
<path id="Vector" d="M4 22H20" stroke="currentColor" stroke-width="1.5" stroke-linecap="round"/>
<path id="Vector_2" d="M13.888 3.66203L7.071 10.48C6.609 10.942 6.378 11.172 6.18 11.427C5.94545 11.7271 5.74458 12.0521 5.581 12.396C5.442 12.687 5.339 12.997 5.132 13.616L4.257 16.242L4.044 16.883C3.99407 17.0325 3.98677 17.1929 4.02293 17.3463C4.05908 17.4997 4.13725 17.6399 4.24868 17.7513C4.3601 17.8628 4.50037 17.9409 4.65375 17.9771C4.80712 18.0133 4.96754 18.006 5.117 17.956L5.758 17.743L8.384 16.867C9.003 16.661 9.313 16.558 9.604 16.419C9.94933 16.2544 10.2723 16.0547 10.573 15.82C10.828 15.621 11.058 15.391 11.52 14.929L18.337 8.11203C18.337 8.11203 16.761 8.01903 15.371 6.62903C13.981 5.23903 13.888 3.66303 13.888 3.66303L14.63 2.92103C14.9222 2.6289 15.2691 2.39719 15.6508 2.23912C16.0325 2.08104 16.4417 1.99971 16.8549 1.99976C17.268 1.9998 17.6771 2.08123 18.0589 2.23939C18.4406 2.39754 18.7874 2.62934 19.0795 2.92153C19.3716 3.21372 19.6033 3.56059 19.7614 3.94233C19.9195 4.32407 20.0008 4.73321 20.0008 5.14638C20.0007 5.55956 19.9193 5.96867 19.7611 6.35038C19.603 6.73209 19.3712 7.0789 19.079 7.37103L18.337 8.11103M4.257 16.242L5.758 17.743" stroke="currentColor" stroke-width="1.5"/>
</g>
</svg>
