<svg preserveAspectRatio="none" width="100%" height="100%" overflow="visible" style="display: block;" viewBox="0 0 18.5 19.5" fill="none" xmlns="http://www.w3.org/2000/svg">
<g id="Group">
<path id="Vector" d="M17.75 3.75004H0.75M16.083 6.25004L15.623 13.15C15.446 15.804 15.358 17.131 14.493 17.94C13.628 18.749 12.297 18.75 9.637 18.75H8.863C6.203 18.75 4.872 18.75 4.007 17.94C3.142 17.131 3.053 15.804 2.877 13.15L2.417 6.25004M6.75 8.75004L7.25 13.75M11.75 8.75004L11.25 13.75" stroke="var(--stroke-0, #1A1A1A)" stroke-width="1.5" stroke-linecap="round"/>
<path id="Vector_2" d="M3.75 3.75004H3.86C4.26245 3.73976 4.65242 3.60826 4.97892 3.37275C5.30543 3.13724 5.55325 2.80868 5.69 2.43004L5.724 2.32704L5.821 2.03604C5.904 1.78704 5.946 1.66304 6.001 1.55704C6.10921 1.34943 6.26451 1.17003 6.45448 1.0332C6.64444 0.896367 6.8638 0.805901 7.095 0.769041C7.212 0.750041 7.343 0.750041 7.605 0.750041H10.895C11.157 0.750041 11.288 0.750041 11.405 0.769041C11.6362 0.805901 11.8556 0.896367 12.0455 1.0332C12.2355 1.17003 12.3908 1.34943 12.499 1.55704C12.554 1.66304 12.596 1.78704 12.679 2.03604L12.776 2.32704C12.9027 2.74831 13.1648 3.11605 13.5217 3.3733C13.8785 3.63056 14.3103 3.76297 14.75 3.75004" stroke="var(--stroke-0, #1A1A1A)" stroke-width="1.5"/>
</g>
</svg>
